<svg version="1.1" id="Layer_1" xmlns="http://www.w3.org/2000/svg" xmlns:xlink="http://www.w3.org/1999/xlink" x="0px" y="0px" width="300px" height="300px" viewBox="0 0 64 64" enable-background="new 0 0 64 64" xml:space="preserve" style="">
<path fill="none" stroke="#F8C8C5" stroke-width="0.3" stroke-miterlimit="10" d="M21,40v5h22l0.001-5.107C49,36.195,53,29.564,53,22
	c0-11.598-9.402-21-21-21s-21,9.402-21,21C11,29.565,14.998,36.304,21,40z" class="jhdKcxME_0"></path>
<path fill="none" stroke="#F8C8C5" stroke-width="0.3" stroke-miterlimit="10" d="M28,45L25,25" class="jhdKcxME_1"></path>
<path fill="none" stroke="#F8C8C5" stroke-width="0.3" stroke-miterlimit="10" d="M36,45L39,25" class="jhdKcxME_2"></path>
<path fill="none" stroke="#F8C8C5" stroke-width="0.3" stroke-miterlimit="10" d="M25,26L29,29L32,26L35,29L39,26" class="jhdKcxME_3"></path>
<path fill="none" stroke="#F8C8C5" stroke-width="0.3" stroke-miterlimit="10" width="22" height="6" d="M21 45 L43 45 L43 51 L21 51 Z" class="jhdKcxME_4"></path>
<path fill="none" stroke="#F8C8C5" stroke-width="0.3" stroke-miterlimit="10" width="18" height="6" d="M23 51 L41 51 L41 57 L23 57 Z" class="jhdKcxME_5"></path>
<path fill="none" stroke="#F8C8C5" stroke-width="0.3" stroke-miterlimit="10" width="14" height="6" d="M25 57 L39 57 L39 63 L25 63 Z" class="jhdKcxME_6"></path>
<style data-made-with="vivus-instant">.jhdKcxME_0{stroke-dasharray:142 144;stroke-dashoffset:143;animation:jhdKcxME_draw 2400ms linear 0ms forwards;}.jhdKcxME_1{stroke-dasharray:21 23;stroke-dashoffset:22;animation:jhdKcxME_draw 2400ms linear 200ms forwards;}.jhdKcxME_2{stroke-dasharray:21 23;stroke-dashoffset:22;animation:jhdKcxME_draw 2400ms linear 400ms forwards;}.jhdKcxME_3{stroke-dasharray:19 21;stroke-dashoffset:20;animation:jhdKcxME_draw 2400ms linear 600ms forwards;}.jhdKcxME_4{stroke-dasharray:56 58;stroke-dashoffset:57;animation:jhdKcxME_draw 2400ms linear 800ms forwards;}.jhdKcxME_5{stroke-dasharray:48 50;stroke-dashoffset:49;animation:jhdKcxME_draw 2400ms linear 1000ms forwards;}.jhdKcxME_6{stroke-dasharray:40 42;stroke-dashoffset:41;animation:jhdKcxME_draw 2400ms linear 1200ms forwards;}@keyframes jhdKcxME_draw{100%{stroke-dashoffset:0;}}@keyframes jhdKcxME_fade{0%{stroke-opacity:1;}94.87179487179488%{stroke-opacity:1;}100%{stroke-opacity:0;}}</style></svg>