<!--?xml version="1.0" encoding="utf-8"?-->
<!-- Generator: Adobe Illustrator 16.0.0, SVG Export Plug-In . SVG Version: 6.00 Build 0)  -->

<svg version="1.1" id="Layer_1" xmlns="http://www.w3.org/2000/svg" xmlns:xlink="http://www.w3.org/1999/xlink" x="0px" y="0px" width="300px" height="280px" viewBox="0 0 64 64" enable-background="new 0 0 64 64" xml:space="preserve" style="">
<g>
	<path fill="none" stroke="#F8C8C5" stroke-width="0.3" stroke-miterlimit="10" width="32" height="62" d="M16 1 L48 1 L48 63 L16 63 Z" class="gSWwJvDG_0"></path>
	<path fill="none" stroke="#F8C8C5" stroke-width="0.3" stroke-miterlimit="10" d="M28,5L36,5" class="gSWwJvDG_1"></path>
	<path fill="none" stroke="#F8C8C5" stroke-width="0.3" stroke-miterlimit="10" d="M16,51L48,51" class="gSWwJvDG_2"></path>
	<path fill="none" stroke="#F8C8C5" stroke-width="0.3" stroke-miterlimit="10" d="M16,9L48,9" class="gSWwJvDG_3"></path>
	<path fill="none" stroke="#F8C8C5" stroke-width="0.3" stroke-linejoin="bevel" stroke-miterlimit="10" d="M30,57A2,2 0,1,1 34,57A2,2 0,1,1 30,57" class="gSWwJvDG_4"></path>
</g>
<path fill="none" stroke="#F8C8C5" stroke-width="0.3" stroke-miterlimit="10" d="M22,27c0,6.666,10,12,10,12s10-5.334,10-12
	c0-2.762-2-5-5-5c-2.762,0-5,2.238-5,5c0-2.762-2.238-5-5-5C24,22,22,24.238,22,27z" class="gSWwJvDG_5"></path>
<style data-made-with="vivus-instant">.gSWwJvDG_0{stroke-dasharray:188 190;stroke-dashoffset:189;animation:gSWwJvDG_draw 3600ms linear 0ms forwards;}.gSWwJvDG_1{stroke-dasharray:8 10;stroke-dashoffset:9;animation:gSWwJvDG_draw 3600ms linear 0ms forwards;}.gSWwJvDG_2{stroke-dasharray:32 34;stroke-dashoffset:33;animation:gSWwJvDG_draw 3600ms linear 0ms forwards;}.gSWwJvDG_3{stroke-dasharray:32 34;stroke-dashoffset:33;animation:gSWwJvDG_draw 3600ms linear 0ms forwards;}.gSWwJvDG_4{stroke-dasharray:13 15;stroke-dashoffset:14;animation:gSWwJvDG_draw 3600ms linear 0ms forwards;}.gSWwJvDG_5{stroke-dasharray:65 67;stroke-dashoffset:66;animation:gSWwJvDG_draw 3600ms linear 0ms forwards;}@keyframes gSWwJvDG_draw{100%{stroke-dashoffset:0;}}@keyframes gSWwJvDG_fade{0%{stroke-opacity:1;}94.87179487179488%{stroke-opacity:1;}100%{stroke-opacity:0;}}</style></svg>
